<mxfile host="Electron" modified="2023-11-02T18:24:53.882Z" agent="Mozilla/5.0 (Windows NT 10.0; Win64; x64) AppleWebKit/537.36 (KHTML, like Gecko) draw.io/21.8.2 Chrome/114.0.5735.289 Electron/25.8.1 Safari/537.36" etag="dSi7XDcSqavLh6JZPdMd" version="21.8.2" type="device">
  <diagram name="Seite-1" id="o0na2_xddIEHQv8oEPZ-">
    <mxGraphModel dx="574" dy="338" grid="1" gridSize="2" guides="1" tooltips="1" connect="1" arrows="1" fold="1" page="1" pageScale="1" pageWidth="827" pageHeight="1169" math="1" shadow="0">
      <root>
        <mxCell id="0" />
        <mxCell id="1" parent="0" />
        <mxCell id="5iIhLcLLqSMqUuw85JXK-21" value="" style="endArrow=classic;dashed=1;html=1;strokeWidth=2;rounded=0;startArrow=none;startFill=0;endFill=1;labelBackgroundColor=none;fontColor=#FFFFFF;strokeColor=#000000;" parent="1" edge="1">
          <mxGeometry width="50" height="50" relative="1" as="geometry">
            <mxPoint x="198" y="522" as="sourcePoint" />
            <mxPoint x="198" y="228" as="targetPoint" />
          </mxGeometry>
        </mxCell>
        <mxCell id="5iIhLcLLqSMqUuw85JXK-28" value="$$\alpha$$" style="text;html=1;align=center;verticalAlign=middle;resizable=0;points=[];autosize=1;strokeColor=none;fillColor=none;fontColor=#000000;" parent="1" vertex="1">
          <mxGeometry x="219.99" y="439" width="80" height="30" as="geometry" />
        </mxCell>
        <mxCell id="5iIhLcLLqSMqUuw85JXK-44" value="$$\gamma \ \text{-joint}$$" style="text;html=1;align=center;verticalAlign=middle;resizable=0;points=[];autosize=1;strokeColor=none;fillColor=none;fontColor=#000000;fontSize=10;opacity=80;textOpacity=60;" parent="1" vertex="1">
          <mxGeometry x="402.15999999999997" y="357.31" width="140" height="30" as="geometry" />
        </mxCell>
        <mxCell id="5iIhLcLLqSMqUuw85JXK-32" value="$$\alpha \ \text{-joint}$$" style="text;html=1;align=center;verticalAlign=middle;resizable=0;points=[];autosize=1;strokeColor=none;fillColor=none;fontColor=#000000;fontSize=10;opacity=80;textOpacity=60;" parent="1" vertex="1">
          <mxGeometry x="185.99" y="486" width="130" height="30" as="geometry" />
        </mxCell>
        <mxCell id="5iIhLcLLqSMqUuw85JXK-31" value="" style="endArrow=none;html=1;rounded=0;fillColor=#0050ef;strokeColor=#000000;opacity=60;" parent="1" edge="1">
          <mxGeometry width="50" height="50" relative="1" as="geometry">
            <mxPoint x="206.99" y="480" as="sourcePoint" />
            <mxPoint x="230" y="500" as="targetPoint" />
          </mxGeometry>
        </mxCell>
        <mxCell id="5iIhLcLLqSMqUuw85JXK-42" value="$$\beta \ \text{-joint}$$" style="text;html=1;align=center;verticalAlign=middle;resizable=0;points=[];autosize=1;strokeColor=none;fillColor=none;fontColor=#000000;fontSize=10;opacity=80;textOpacity=60;" parent="1" vertex="1">
          <mxGeometry x="278.99" y="422" width="120" height="30" as="geometry" />
        </mxCell>
        <mxCell id="5iIhLcLLqSMqUuw85JXK-2" value="" style="rounded=0;whiteSpace=wrap;html=1;rotation=-30;strokeWidth=2;fillColor=#000000;strokeColor=#000000;" parent="1" vertex="1">
          <mxGeometry x="193.99" y="442" width="100" height="5" as="geometry" />
        </mxCell>
        <mxCell id="5iIhLcLLqSMqUuw85JXK-4" value="" style="rounded=0;whiteSpace=wrap;html=1;rotation=-30;strokeWidth=2;fillColor=#000000;strokeColor=#000000;" parent="1" vertex="1">
          <mxGeometry x="278.99" y="378.5" width="150" height="5" as="geometry" />
        </mxCell>
        <mxCell id="5iIhLcLLqSMqUuw85JXK-5" value="" style="rounded=0;whiteSpace=wrap;html=1;rotation=-30;strokeWidth=2;fillColor=#000000;strokeColor=#000000;" parent="1" vertex="1">
          <mxGeometry x="410.16" y="300.74" width="157.05" height="5" as="geometry" />
        </mxCell>
        <mxCell id="5iIhLcLLqSMqUuw85JXK-7" value="" style="ellipse;whiteSpace=wrap;html=1;aspect=fixed;strokeWidth=2;fillColor=#E6E6E6;strokeColor=#000000;" parent="1" vertex="1">
          <mxGeometry x="193.99" y="465" width="10" height="10" as="geometry" />
        </mxCell>
        <mxCell id="5iIhLcLLqSMqUuw85JXK-17" value="y" style="endArrow=none;dashed=1;html=1;dashPattern=1 2;strokeWidth=1;rounded=0;exitX=0.231;exitY=0;exitDx=0;exitDy=0;exitPerimeter=0;entryX=1;entryY=0.5;entryDx=0;entryDy=0;verticalAlign=bottom;horizontal=1;labelBackgroundColor=none;strokeColor=#000000;fontColor=#000000;" parent="1" edge="1">
          <mxGeometry x="0.0008" y="4" width="50" height="50" relative="1" as="geometry">
            <mxPoint x="196.99" y="263.94999999999993" as="sourcePoint" />
            <mxPoint x="556.6896448321731" y="263.97749999999996" as="targetPoint" />
            <mxPoint as="offset" />
          </mxGeometry>
        </mxCell>
        <mxCell id="5iIhLcLLqSMqUuw85JXK-19" value="" style="endArrow=classic;dashed=1;html=1;strokeWidth=2;rounded=0;startArrow=none;startFill=0;endFill=1;labelBackgroundColor=none;fontColor=#FFFFFF;strokeColor=#000000;" parent="1" source="5iIhLcLLqSMqUuw85JXK-7" edge="1">
          <mxGeometry width="50" height="50" relative="1" as="geometry">
            <mxPoint x="216.99" y="475.00000000000006" as="sourcePoint" />
            <mxPoint x="590" y="470" as="targetPoint" />
          </mxGeometry>
        </mxCell>
        <mxCell id="5iIhLcLLqSMqUuw85JXK-20" value="&amp;nbsp;&amp;nbsp;x" style="endArrow=none;dashed=1;html=1;dashPattern=1 2;strokeWidth=1;rounded=0;startArrow=none;startFill=0;endFill=0;entryX=0;entryY=0;entryDx=10;entryDy=10;entryPerimeter=0;verticalAlign=middle;horizontal=1;align=left;labelBackgroundColor=none;strokeColor=#000000;fontColor=#000000;" parent="1" edge="1">
          <mxGeometry width="50" height="50" relative="1" as="geometry">
            <mxPoint x="556.99" y="470" as="sourcePoint" />
            <mxPoint x="557.21" y="264" as="targetPoint" />
          </mxGeometry>
        </mxCell>
        <mxCell id="5iIhLcLLqSMqUuw85JXK-22" value="" style="endArrow=none;html=1;strokeColor=#000000;curved=1;entryX=0.75;entryY=1;entryDx=0;entryDy=0;fontColor=#FFFFFF;labelBackgroundColor=none;" parent="1" target="5iIhLcLLqSMqUuw85JXK-2" edge="1">
          <mxGeometry width="50" height="50" relative="1" as="geometry">
            <mxPoint x="276.99" y="470" as="sourcePoint" />
            <mxPoint x="256.99" y="440" as="targetPoint" />
            <Array as="points">
              <mxPoint x="276.99" y="450" />
            </Array>
          </mxGeometry>
        </mxCell>
        <mxCell id="5iIhLcLLqSMqUuw85JXK-23" value="" style="endArrow=none;html=1;strokeColor=#000000;curved=1;labelBackgroundColor=none;fontColor=#FFFFFF;" parent="1" edge="1">
          <mxGeometry width="50" height="50" relative="1" as="geometry">
            <mxPoint x="536.99" y="470" as="sourcePoint" />
            <mxPoint x="556.99" y="450" as="targetPoint" />
            <Array as="points">
              <mxPoint x="536.99" y="450" />
            </Array>
          </mxGeometry>
        </mxCell>
        <mxCell id="5iIhLcLLqSMqUuw85JXK-24" value="" style="ellipse;whiteSpace=wrap;html=1;aspect=fixed;" parent="1" vertex="1">
          <mxGeometry as="geometry" />
        </mxCell>
        <mxCell id="5iIhLcLLqSMqUuw85JXK-25" value="" style="ellipse;whiteSpace=wrap;html=1;aspect=fixed;fillColor=#FFFFFF;strokeWidth=1;fontColor=#FFFFFF;strokeColor=#000000;" parent="1" vertex="1">
          <mxGeometry x="548.21" y="461" width="1" height="1" as="geometry" />
        </mxCell>
        <mxCell id="5iIhLcLLqSMqUuw85JXK-27" value="(x,y,z)" style="text;html=1;align=center;verticalAlign=middle;resizable=0;points=[];autosize=1;strokeColor=none;fillColor=none;fontColor=#000000;" parent="1" vertex="1">
          <mxGeometry x="560" y="249" width="60" height="30" as="geometry" />
        </mxCell>
        <mxCell id="5iIhLcLLqSMqUuw85JXK-33" value="" style="verticalLabelPosition=bottom;shadow=0;dashed=0;align=center;html=1;verticalAlign=top;strokeWidth=1;shape=mxgraph.mockup.markup.curlyBrace;whiteSpace=wrap;strokeColor=#000000;rotation=-30;fillColor=#000000;" parent="1" vertex="1">
          <mxGeometry x="171" y="348.31" width="400.27" height="13.56" as="geometry" />
        </mxCell>
        <mxCell id="5iIhLcLLqSMqUuw85JXK-34" value="$$l_\text{total}$$" style="text;html=1;align=center;verticalAlign=middle;resizable=0;points=[];autosize=1;strokeColor=none;fillColor=none;fontColor=#000000;fontSize=12;rotation=-30;" parent="1" vertex="1">
          <mxGeometry x="305.99" y="325.31" width="110" height="30" as="geometry" />
        </mxCell>
        <mxCell id="5iIhLcLLqSMqUuw85JXK-38" value="" style="shape=cylinder3;whiteSpace=wrap;html=1;boundedLbl=1;backgroundOutline=1;size=0;rotation=-30;strokeColor=#000000;fillColor=#E6E6E6;" parent="1" vertex="1">
          <mxGeometry x="285.99" y="410" width="11" height="14" as="geometry" />
        </mxCell>
        <mxCell id="5iIhLcLLqSMqUuw85JXK-40" value="" style="shape=cylinder3;whiteSpace=wrap;html=1;boundedLbl=1;backgroundOutline=1;size=0;rotation=-210;strokeColor=#000000;fillColor=#E6E6E6;" parent="1" vertex="1">
          <mxGeometry x="415.99" y="335.31" width="11" height="14" as="geometry" />
        </mxCell>
        <mxCell id="5iIhLcLLqSMqUuw85JXK-41" value="" style="endArrow=none;html=1;rounded=0;fillColor=#0050ef;strokeColor=#000000;opacity=60;" parent="1" edge="1">
          <mxGeometry width="50" height="50" relative="1" as="geometry">
            <mxPoint x="299.99" y="425" as="sourcePoint" />
            <mxPoint x="319.99" y="435" as="targetPoint" />
          </mxGeometry>
        </mxCell>
        <mxCell id="5iIhLcLLqSMqUuw85JXK-43" value="" style="endArrow=none;html=1;rounded=0;fillColor=#0050ef;strokeColor=#000000;opacity=60;" parent="1" edge="1">
          <mxGeometry width="50" height="50" relative="1" as="geometry">
            <mxPoint x="428.15999999999997" y="351.31" as="sourcePoint" />
            <mxPoint x="451.16999999999996" y="371.31" as="targetPoint" />
          </mxGeometry>
        </mxCell>
        <mxCell id="WddJ9OmKZE_bpCpfCoRv-1" value="" style="endArrow=classic;html=1;curved=1;strokeWidth=1;endSize=2;dashed=1;dashPattern=1 1;strokeColor=#FF0000;opacity=30;" parent="1" edge="1">
          <mxGeometry width="50" height="50" relative="1" as="geometry">
            <mxPoint x="410" y="466" as="sourcePoint" />
            <mxPoint x="368" y="380" as="targetPoint" />
            <Array as="points">
              <mxPoint x="410" y="410" />
            </Array>
          </mxGeometry>
        </mxCell>
        <mxCell id="a6RfHtZy1gpW5Wlr1J5m-1" value="" style="ellipse;whiteSpace=wrap;html=1;aspect=fixed;fillColor=#FF0000;strokeColor=#FF0000;" parent="1" vertex="1">
          <mxGeometry x="553" y="261" width="7" height="7" as="geometry" />
        </mxCell>
        <mxCell id="ZFuhyWV6k22q77pF3StT-3" value="x" style="text;html=1;align=center;verticalAlign=middle;resizable=0;points=[];autosize=1;strokeColor=none;fillColor=none;fontStyle=1;fontSize=11;fontColor=#000000;labelBorderColor=none;" vertex="1" parent="1">
          <mxGeometry x="171" y="216" width="26" height="26" as="geometry" />
        </mxCell>
        <mxCell id="ZFuhyWV6k22q77pF3StT-4" value="y" style="text;html=1;align=center;verticalAlign=middle;resizable=0;points=[];autosize=1;strokeColor=none;fillColor=none;fontStyle=1;fontSize=11;fontColor=#000000;" vertex="1" parent="1">
          <mxGeometry x="574" y="466" width="26" height="26" as="geometry" />
        </mxCell>
      </root>
    </mxGraphModel>
  </diagram>
</mxfile>
